<svg viewBox="0 0 400 500" xmlns="http://www.w3.org/2000/svg">
  <defs>
    <linearGradient id="bg3" x1="0%" y1="0%" x2="100%" y2="100%">
      <stop offset="0%" style="stop-color:#ede4f0;stop-opacity:1" />
      <stop offset="100%" style="stop-color:#f5e6ef;stop-opacity:1" />
    </linearGradient>
  </defs>
  <rect width="400" height="500" fill="url(#bg3)"/>
  <circle cx="200" cy="170" r="72" fill="#bfa8d0"/>
  <polygon points="155,105 132,60 165,108" fill="#bfa8d0"/>
  <polygon points="245,105 268,60 235,108" fill="#bfa8d0"/>
  <polygon points="155,105 145,82 162,104" fill="#e8a0b0"/>
  <polygon points="245,105 255,82 238,104" fill="#e8a0b0"/>
  <circle cx="180" cy="160" r="13" fill="#6bb3ff"/>
  <circle cx="220" cy="160" r="13" fill="#6bb3ff"/>
  <circle cx="182" cy="158" r="5" fill="white"/>
  <circle cx="222" cy="158" r="5" fill="white"/>
  <polygon points="200,192 195,205 205,205" fill="#e8a0b0"/>
  <path d="M 200 215 Q 188 228 175 220" stroke="#999" stroke-width="2" fill="none"/>
  <path d="M 200 215 Q 212 228 225 220" stroke="#999" stroke-width="2" fill="none"/>
  <ellipse cx="200" cy="305" rx="58" ry="82" fill="#bfa8d0"/>
  <path d="M 258 315 Q 325 305 335 230" stroke="#bfa8d0" stroke-width="22" fill="none" stroke-linecap="round"/>
  <ellipse cx="172" cy="378" rx="19" ry="36" fill="#bfa8d0"/>
  <ellipse cx="228" cy="378" rx="19" ry="36" fill="#bfa8d0"/>
  <text x="200" y="455" font-size="20" fill="#8b7ba8" text-anchor="middle" font-weight="bold">Blue Ragdoll</text>
</svg>
