<svg viewBox="0 0 400 500" xmlns="http://www.w3.org/2000/svg">
  <defs>
    <linearGradient id="bg5" x1="0%" y1="0%" x2="100%" y2="100%">
      <stop offset="0%" style="stop-color:#e8d4f1;stop-opacity:1" />
      <stop offset="100%" style="stop-color:#f0e6f5;stop-opacity:1" />
    </linearGradient>
  </defs>
  <rect width="400" height="500" fill="url(#bg5)"/>
  <circle cx="200" cy="165" r="70" fill="#c0b0d0"/>
  <polygon points="158,102 135,55 168,106" fill="#c0b0d0"/>
  <polygon points="242,102 265,55 232,106" fill="#c0b0d0"/>
  <polygon points="158,102 148,78 164,104" fill="#e8a0b0"/>
  <polygon points="242,102 252,78 236,104" fill="#e8a0b0"/>
  <circle cx="176" cy="156" r="13" fill="#4a90e2"/>
  <circle cx="224" cy="156" r="13" fill="#4a90e2"/>
  <circle cx="178" cy="154" r="5" fill="white"/>
  <circle cx="226" cy="154" r="5" fill="white"/>
  <polygon points="200,188 195,200 205,200" fill="#e8a0b0"/>
  <path d="M 200 208 Q 187 222 174 214" stroke="#888" stroke-width="2" fill="none"/>
  <path d="M 200 208 Q 213 222 226 214" stroke="#888" stroke-width="2" fill="none"/>
  <ellipse cx="200" cy="302" rx="57" ry="81" fill="#c0b0d0"/>
  <path d="M 257 312 Q 327 302 337 225" stroke="#c0b0d0" stroke-width="21" fill="none" stroke-linecap="round"/>
  <ellipse cx="173" cy="375" rx="18" ry="34" fill="#c0b0d0"/>
  <ellipse cx="227" cy="375" rx="18" ry="34" fill="#c0b0d0"/>
  <text x="200" y="455" font-size="20" fill="#8b7ba8" text-anchor="middle" font-weight="bold">Playful Kitten</text>
</svg>
