<svg viewBox="0 0 400 500" xmlns="http://www.w3.org/2000/svg">
  <defs>
    <linearGradient id="bg4" x1="0%" y1="0%" x2="100%" y2="100%">
      <stop offset="0%" style="stop-color:#f5e6ef;stop-opacity:1" />
      <stop offset="100%" style="stop-color:#ede4f0;stop-opacity:1" />
    </linearGradient>
  </defs>
  <rect width="400" height="500" fill="url(#bg4)"/>
  <circle cx="200" cy="175" r="68" fill="#d0c0d8"/>
  <polygon points="160,115 140,70 170,120" fill="#d0c0d8"/>
  <polygon points="240,115 260,70 230,120" fill="#d0c0d8"/>
  <polygon points="160,115 152,92 166,116" fill="#f0c0d0"/>
  <polygon points="240,115 248,92 234,116" fill="#f0c0d0"/>
  <circle cx="178" cy="168" r="12" fill="#5ba3f5"/>
  <circle cx="222" cy="168" r="12" fill="#5ba3f5"/>
  <circle cx="180" cy="166" r="5" fill="white"/>
  <circle cx="224" cy="166" r="5" fill="white"/>
  <polygon points="200" cy="194" 196,206 204,206" fill="#f0c0d0"/>
  <path d="M 200 220 Q 186 235 173 226" stroke="#aaa" stroke-width="2" fill="none"/>
  <path d="M 200 220 Q 214 235 227 226" stroke="#aaa" stroke-width="2" fill="none"/>
  <ellipse cx="200" cy="308" rx="56" ry="80" fill="#d0c0d8"/>
  <path d="M 256 318 Q 328 308 338 235" stroke="#d0c0d8" stroke-width="23" fill="none" stroke-linecap="round"/>
  <ellipse cx="174" cy="380" rx="17" ry="35" fill="#d0c0d8"/>
  <ellipse cx="226" cy="380" rx="17" ry="35" fill="#d0c0d8"/>
  <text x="200" y="460" font-size="20" fill="#8b7ba8" text-anchor="middle" font-weight="bold">Sweet Ragdoll</text>
</svg>
