<svg viewBox="0 0 400 500" xmlns="http://www.w3.org/2000/svg">
  <defs>
    <linearGradient id="bg2" x1="0%" y1="0%" x2="100%" y2="100%">
      <stop offset="0%" style="stop-color:#f0e6f5;stop-opacity:1" />
      <stop offset="100%" style="stop-color:#e8d4f1;stop-opacity:1" />
    </linearGradient>
  </defs>
  <rect width="400" height="500" fill="url(#bg2)"/>
  <circle cx="200" cy="160" r="75" fill="#d4c4e0"/>
  <polygon points="150,95 125,45 160,100" fill="#d4c4e0"/>
  <polygon points="250,95 275,45 240,100" fill="#d4c4e0"/>
  <polygon points="150,95 140,70 158,98" fill="#f0c0d0"/>
  <polygon points="250,95 260,70 242,98" fill="#f0c0d0"/>
  <circle cx="170" cy="150" r="14" fill="#5ba3f5"/>
  <circle cx="230" cy="150" r="14" fill="#5ba3f5"/>
  <circle cx="172" cy="148" r="6" fill="white"/>
  <circle cx="232" cy="148" r="6" fill="white"/>
  <polygon points="200,185 194,198 206,198" fill="#f0c0d0"/>
  <path d="M 200 210 Q 185 225 172 218" stroke="#888" stroke-width="2" fill="none"/>
  <path d="M 200 210 Q 215 225 228 218" stroke="#888" stroke-width="2" fill="none"/>
  <ellipse cx="200" cy="310" rx="55" ry="85" fill="#d4c4e0"/>
  <path d="M 255 320 Q 330 330 340 240" stroke="#d4c4e0" stroke-width="20" fill="none" stroke-linecap="round"/>
  <ellipse cx="175" cy="385" rx="18" ry="38" fill="#d4c4e0"/>
  <ellipse cx="225" cy="385" rx="18" ry="38" fill="#d4c4e0"/>
  <text x="200" y="460" font-size="18" fill="#8b7ba8" text-anchor="middle" font-weight="bold">Ragdoll Kitten</text>
</svg>
